<svg width="2316" height="1104" viewBox="0 0 2316 1104" fill="none" xmlns="http://www.w3.org/2000/svg" xmlns:xlink="http://www.w3.org/1999/xlink">
<rect x="1" y="1" width="2314" height="1102" rx="8" fill="white" stroke="#C4C4C4" stroke-width="2" stroke-dasharray="2 2"/>
<path d="M1342.5 766.373V1046.37H77.5811L119.93 766.373H1342.5Z" fill="white" stroke="#A3A3A3"/>
<path d="M257.932 96.5L216.206 554.729L216.205 554.745L216.202 554.761L183.583 765.5H496.5V96.5H257.932Z" fill="url(#pattern0_4233_50)" fill-opacity="0.6" stroke="#A3A3A3"/>
<rect x="0.5" y="-0.5" width="847" height="94" transform="matrix(1 0 0 -1 495 190)" fill="url(#pattern1_4233_50)" fill-opacity="0.6" stroke="#A3A3A3"/>
<rect x="499" y="194.873" width="840" height="567" fill="white" stroke="#A3A3A3" stroke-width="8"/>
<rect x="-0.5" y="0.5" width="73" height="190" transform="matrix(-1 0 0 1 494 575)" fill="white" stroke="#A3A3A3"/>
<rect width="6" height="8" transform="matrix(-1 0 0 1 428 575)" fill="#605C5C"/>
<rect width="5" height="8" transform="matrix(-1 0 0 1 435 575)" fill="#605C5C"/>
<rect width="5" height="8" transform="matrix(-1 0 0 1 445 575)" fill="#605C5C"/>
<rect width="6" height="8" transform="matrix(-1 0 0 1 457 575)" fill="#605C5C"/>
<rect width="5" height="8" transform="matrix(-1 0 0 1 465 575)" fill="#605C5C"/>
<rect width="6" height="8" transform="matrix(-1 0 0 1 478 575)" fill="#605C5C"/>
<rect width="4" height="8" transform="matrix(-1 0 0 1 488 575)" fill="#605C5C"/>
<rect width="2" height="8" transform="matrix(-1 0 0 1 495 575)" fill="#605C5C"/>
<rect x="395.5" y="575.5" width="26" height="190" fill="white" stroke="#A3A3A3"/>
<rect x="369.5" y="575.5" width="26" height="190" fill="white" stroke="#A3A3A3"/>
<rect x="343.5" y="575.5" width="26" height="190" fill="white" stroke="#A3A3A3"/>
<rect x="1292" y="868.873" width="223" height="174.268" fill="white" stroke="#A3A3A3" stroke-width="8"/>
<rect x="1343.5" y="96.5" width="9" height="768" fill="white" stroke="#A3A3A3"/>
<rect x="1351.5" y="96.5" width="9" height="768" fill="white" stroke="#A3A3A3"/>
<rect x="1359.5" y="96.5" width="9" height="768" fill="white" stroke="#A3A3A3"/>
<rect x="1367.5" y="96.5" width="9" height="768" fill="white" stroke="#A3A3A3"/>
<rect x="1375.5" y="96.5" width="9" height="768" fill="white" stroke="#A3A3A3"/>
<rect x="1383.5" y="96.5" width="9" height="768" fill="white" stroke="#A3A3A3"/>
<rect x="1391.5" y="96.5" width="9" height="768" fill="white" stroke="#A3A3A3"/>
<rect x="1399.5" y="96.5" width="9" height="768" fill="white" stroke="#A3A3A3"/>
<rect x="1407.5" y="96.5" width="9" height="768" fill="white" stroke="#A3A3A3"/>
<rect x="1415.5" y="96.5" width="9" height="768" fill="white" stroke="#A3A3A3"/>
<rect x="1423.5" y="96.5" width="9" height="768" fill="white" stroke="#A3A3A3"/>
<rect x="1431.5" y="96.5" width="9" height="768" fill="white" stroke="#A3A3A3"/>
<rect x="1439.5" y="96.5" width="9" height="768" fill="white" stroke="#A3A3A3"/>
<rect x="1447.5" y="96.5" width="9" height="768" fill="white" stroke="#A3A3A3"/>
<rect x="1455.5" y="96.5" width="9" height="768" fill="white" stroke="#A3A3A3"/>
<rect x="1463.5" y="96.5" width="9" height="768" fill="white" stroke="#A3A3A3"/>
<rect x="1471.5" y="96.5" width="9" height="768" fill="white" stroke="#A3A3A3"/>
<rect x="1479.5" y="96.5" width="9" height="768" fill="white" stroke="#A3A3A3"/>
<rect x="1487.5" y="96.5" width="9" height="768" fill="white" stroke="#A3A3A3"/>
<rect x="1495.5" y="96.5" width="9" height="768" fill="white" stroke="#A3A3A3"/>
<rect x="1503.5" y="96.5" width="9" height="768" fill="white" stroke="#A3A3A3"/>
<rect x="1511.5" y="96.5" width="9" height="768" fill="white" stroke="#A3A3A3"/>
<rect x="1519.5" y="96.5" width="9" height="768" fill="white" stroke="#A3A3A3"/>
<rect x="1527.5" y="96.5" width="9" height="768" fill="white" stroke="#A3A3A3"/>
<rect x="1535.5" y="96.5" width="9" height="768" fill="white" stroke="#A3A3A3"/>
<rect x="1543.5" y="96.5" width="9" height="768" fill="white" stroke="#A3A3A3"/>
<rect x="1551.5" y="96.5" width="9" height="768" fill="white" stroke="#A3A3A3"/>
<rect x="1559.5" y="96.5" width="9" height="768" fill="white" stroke="#A3A3A3"/>
<rect x="1567.5" y="96.5" width="9" height="768" fill="white" stroke="#A3A3A3"/>
<rect x="1336.5" y="766.5" width="6" height="98" fill="white" stroke="#A3A3A3"/>
<rect x="1330.5" y="766.5" width="6" height="98" fill="white" stroke="#A3A3A3"/>
<rect x="1324.5" y="766.5" width="6" height="98" fill="white" stroke="#A3A3A3"/>
<rect x="1318.5" y="766.5" width="6" height="98" fill="white" stroke="#A3A3A3"/>
<rect x="1312.5" y="766.5" width="6" height="98" fill="white" stroke="#A3A3A3"/>
<rect x="1306.5" y="766.5" width="6" height="98" fill="white" stroke="#A3A3A3"/>
<rect x="1300.5" y="766.5" width="6" height="98" fill="white" stroke="#A3A3A3"/>
<rect x="1294.5" y="766.5" width="6" height="98" fill="white" stroke="#A3A3A3"/>
<rect x="1289.5" y="766.5" width="6" height="98" fill="white" stroke="#A3A3A3"/>
<path d="M1575 97V981H2183.56L2234.94 97H1575Z" fill="white" stroke="#A3A3A3" stroke-width="2"/>
<defs>
<pattern id="pattern0_4233_50" patternUnits="userSpaceOnUse" patternTransform="matrix(-39 0 0 39 497 96)" preserveAspectRatio="none" viewBox="0 0 39 39" width="1" height="1">
<g id="pattern0_4233_50_inner">
<rect x="0.5" y="0.5" width="38" height="38" stroke="#D6D6D6"/>
</g>
</pattern><pattern id="pattern1_4233_50" patternUnits="userSpaceOnUse" patternTransform="matrix(50.4 0 0 28.8 0 0)" preserveAspectRatio="none" viewBox="0 0 50.4 28.8" width="1" height="1">
<use xlink:href="#pattern1_4233_50_inner" transform="translate(0 -28.8)"/>
<use xlink:href="#pattern1_4233_50_inner" transform="translate(25.2 -14.4)"/>
<g id="pattern1_4233_50_inner">
<circle cx="3.5" cy="10.5" r="3.5" fill="#D9D9D9"/>
<circle cx="14.5" cy="2.5" r="2.5" fill="#D9D9D9"/>
<circle cx="18.5" cy="12.5" r="2.5" fill="#D9D9D9"/>
<circle cx="12.5" cy="9.5" r="2.5" fill="#D9D9D9"/>
<circle cx="6" cy="3" r="2" fill="#D9D9D9"/>
<circle cx="11.5" cy="16.5" r="2.5" fill="#D9D9D9"/>
<circle cx="5.5" cy="19.5" r="2.5" fill="#D9D9D9"/>
<circle cx="18" cy="21" r="3" fill="#D9D9D9"/>
</g>
<use xlink:href="#pattern1_4233_50_inner" transform="translate(25.2 14.4)"/>
</pattern></defs>
</svg>
